<?xml version="1.0" encoding="UTF-8"?><svg xmlns="http://www.w3.org/2000/svg" xmlns:xlink="http://www.w3.org/1999/xlink" fill-opacity="1" color-rendering="auto" color-interpolation="auto" text-rendering="auto" stroke="black" stroke-linecap="square" width="428" stroke-miterlimit="10" shape-rendering="auto" stroke-opacity="1" fill="black" stroke-dasharray="none" font-weight="normal" stroke-width="1" height="330" font-family="'Dialog'" font-style="normal" stroke-linejoin="miter" font-size="12px" stroke-dashoffset="0" image-rendering="auto">
  <!--Generated by ySVG 2.5-->
  <defs id="genericDefs"/>
  <g>
    <defs id="defs1">
      <linearGradient x1="376" gradientUnits="userSpaceOnUse" x2="376" y1="105" y2="134" id="linearGradient1" spreadMethod="pad">
        <stop stop-opacity="1" stop-color="rgb(255,230,191)" offset="0%"/>
        <stop stop-opacity="1" stop-color="rgb(255,173,51)" offset="100%"/>
      </linearGradient>
      <linearGradient x1="376" gradientUnits="userSpaceOnUse" x2="376" y1="351" y2="380" id="linearGradient2" spreadMethod="pad">
        <stop stop-opacity="1" stop-color="rgb(255,230,191)" offset="0%"/>
        <stop stop-opacity="1" stop-color="rgb(255,173,51)" offset="100%"/>
      </linearGradient>
      <linearGradient x1="447" gradientUnits="userSpaceOnUse" x2="447" y1="174" y2="195" id="linearGradient3" spreadMethod="pad">
        <stop stop-opacity="1" stop-color="rgb(255,230,191)" offset="0%"/>
        <stop stop-opacity="1" stop-color="rgb(255,173,51)" offset="100%"/>
      </linearGradient>
      <linearGradient x1="447" gradientUnits="userSpaceOnUse" x2="447" y1="250" y2="271" id="linearGradient4" spreadMethod="pad">
        <stop stop-opacity="1" stop-color="rgb(255,230,191)" offset="0%"/>
        <stop stop-opacity="1" stop-color="rgb(255,173,51)" offset="100%"/>
      </linearGradient>
      <linearGradient x1="447" gradientUnits="userSpaceOnUse" x2="447" y1="212" y2="233" id="linearGradient5" spreadMethod="pad">
        <stop stop-opacity="1" stop-color="rgb(255,230,191)" offset="0%"/>
        <stop stop-opacity="1" stop-color="rgb(255,173,51)" offset="100%"/>
      </linearGradient>
      <linearGradient x1="447" gradientUnits="userSpaceOnUse" x2="447" y1="288" y2="309" id="linearGradient6" spreadMethod="pad">
        <stop stop-opacity="1" stop-color="rgb(255,230,191)" offset="0%"/>
        <stop stop-opacity="1" stop-color="rgb(255,173,51)" offset="100%"/>
      </linearGradient>
      <clipPath clipPathUnits="userSpaceOnUse" id="clipPath1">
        <path d="M0 0 L428 0 L428 330 L0 330 L0 0 Z"/>
      </clipPath>
      <clipPath clipPathUnits="userSpaceOnUse" id="clipPath2">
        <path d="M361 91 L789 91 L789 421 L361 421 L361 91 Z"/>
      </clipPath>
    </defs>
    <g fill="white" text-rendering="geometricPrecision" shape-rendering="geometricPrecision" transform="translate(-361,-91)" stroke="white">
      <rect x="361" width="428" height="330" y="91" clip-path="url(#clipPath2)" stroke="none"/>
    </g>
    <g fill="rgb(255,153,0)" text-rendering="geometricPrecision" shape-rendering="geometricPrecision" transform="matrix(1,0,0,1,-361,-91)" stroke="rgb(255,153,0)">
      <path d="M376 132 L501 132 L501 150 Q501 160 491 160 L386 160 Q376 160 376 150 Z" stroke="none" clip-path="url(#clipPath2)"/>
      <path fill="url(#linearGradient1)" d="M376 116 Q376 106 386 106 L491 106 Q501 106 501 116 L501 133 L376 133 Z" clip-path="url(#clipPath2)" stroke="none"/>
      <path fill="none" d="M378 116 Q378 108 386 108 L491 108 Q499 108 499 116 L499 150 Q499 158 491 158 L386 158 Q378 158 378 150 Z" stroke-width="2" clip-path="url(#clipPath2)" stroke="rgb(255,240,217)"/>
      <path fill="none" d="M378 116 Q378 108 386 108 L491 108 Q499 108 499 116 L499 150 Q499 158 491 158 L386 158 Q378 158 378 150 Z" clip-path="url(#clipPath2)"/>
    </g>
    <g text-rendering="geometricPrecision" stroke-miterlimit="1.45" shape-rendering="geometricPrecision" font-family="sans-serif" transform="matrix(1,0,0,1,-361,-91)" stroke-linecap="butt">
      <text x="412.8184" xml:space="preserve" y="137.7139" clip-path="url(#clipPath2)" stroke="none">Bootstrap</text>
    </g>
    <g fill="rgb(255,153,0)" text-rendering="geometricPrecision" shape-rendering="geometricPrecision" transform="matrix(1,0,0,1,-361,-91)" stroke="rgb(255,153,0)">
      <path d="M376 378 L501 378 L501 396 Q501 406 491 406 L386 406 Q376 406 376 396 Z" stroke="none" clip-path="url(#clipPath2)"/>
      <path fill="url(#linearGradient2)" d="M376 362 Q376 352 386 352 L491 352 Q501 352 501 362 L501 379 L376 379 Z" clip-path="url(#clipPath2)" stroke="none"/>
      <path fill="none" d="M378 362 Q378 354 386 354 L491 354 Q499 354 499 362 L499 396 Q499 404 491 404 L386 404 Q378 404 378 396 Z" stroke-width="2" clip-path="url(#clipPath2)" stroke="rgb(255,240,217)"/>
      <path fill="none" d="M378 362 Q378 354 386 354 L491 354 Q499 354 499 362 L499 396 Q499 404 491 404 L386 404 Q378 404 378 396 Z" clip-path="url(#clipPath2)"/>
    </g>
    <g text-rendering="geometricPrecision" stroke-miterlimit="1.45" shape-rendering="geometricPrecision" font-family="sans-serif" transform="matrix(1,0,0,1,-361,-91)" stroke-linecap="butt">
      <text x="400.1562" xml:space="preserve" y="383.7139" clip-path="url(#clipPath2)" stroke="none">Finalize Tasks</text>
    </g>
    <g fill="rgb(255,153,0)" text-rendering="geometricPrecision" shape-rendering="geometricPrecision" transform="matrix(1,0,0,1,-361,-91)" stroke="rgb(255,153,0)">
      <path d="M447 193 L572 193 L572 203 Q572 213 562 213 L457 213 Q447 213 447 203 Z" stroke="none" clip-path="url(#clipPath2)"/>
      <path fill="url(#linearGradient3)" d="M447 185 Q447 175 457 175 L562 175 Q572 175 572 185 L572 194 L447 194 Z" clip-path="url(#clipPath2)" stroke="none"/>
      <path fill="none" d="M449 185 Q449 177 457 177 L562 177 Q570 177 570 185 L570 203 Q570 211 562 211 L457 211 Q449 211 449 203 Z" stroke-width="2" clip-path="url(#clipPath2)" stroke="rgb(255,240,217)"/>
      <path fill="none" d="M449 185 Q449 177 457 177 L562 177 Q570 177 570 185 L570 203 Q570 211 562 211 L457 211 Q449 211 449 203 Z" clip-path="url(#clipPath2)"/>
    </g>
    <g text-rendering="geometricPrecision" stroke-miterlimit="1.45" shape-rendering="geometricPrecision" font-family="sans-serif" transform="matrix(1,0,0,1,-361,-91)" stroke-linecap="butt">
      <text x="485.1602" xml:space="preserve" y="198.7139" clip-path="url(#clipPath2)" stroke="none">Common</text>
    </g>
    <g fill="rgb(255,153,0)" text-rendering="geometricPrecision" shape-rendering="geometricPrecision" transform="matrix(1,0,0,1,-361,-91)" stroke="rgb(255,153,0)">
      <path d="M447 269 L572 269 L572 279 Q572 289 562 289 L457 289 Q447 289 447 279 Z" stroke="none" clip-path="url(#clipPath2)"/>
      <path fill="url(#linearGradient4)" d="M447 261 Q447 251 457 251 L562 251 Q572 251 572 261 L572 270 L447 270 Z" clip-path="url(#clipPath2)" stroke="none"/>
      <path fill="none" d="M449 261 Q449 253 457 253 L562 253 Q570 253 570 261 L570 279 Q570 287 562 287 L457 287 Q449 287 449 279 Z" stroke-width="2" clip-path="url(#clipPath2)" stroke="rgb(255,240,217)"/>
      <path fill="none" d="M449 261 Q449 253 457 253 L562 253 Q570 253 570 261 L570 279 Q570 287 562 287 L457 287 Q449 287 449 279 Z" clip-path="url(#clipPath2)"/>
    </g>
    <g text-rendering="geometricPrecision" stroke-miterlimit="1.45" shape-rendering="geometricPrecision" font-family="sans-serif" transform="matrix(1,0,0,1,-361,-91)" stroke-linecap="butt">
      <text x="483.4902" xml:space="preserve" y="274.7139" clip-path="url(#clipPath2)" stroke="none">Recurring</text>
    </g>
    <g fill="rgb(255,153,0)" text-rendering="geometricPrecision" shape-rendering="geometricPrecision" transform="matrix(1,0,0,1,-361,-91)" stroke="rgb(255,153,0)">
      <path d="M447 231 L572 231 L572 241 Q572 251 562 251 L457 251 Q447 251 447 241 Z" stroke="none" clip-path="url(#clipPath2)"/>
      <path fill="url(#linearGradient5)" d="M447 223 Q447 213 457 213 L562 213 Q572 213 572 223 L572 232 L447 232 Z" clip-path="url(#clipPath2)" stroke="none"/>
      <path fill="none" d="M449 223 Q449 215 457 215 L562 215 Q570 215 570 223 L570 241 Q570 249 562 249 L457 249 Q449 249 449 241 Z" stroke-width="2" clip-path="url(#clipPath2)" stroke="rgb(255,240,217)"/>
      <path fill="none" d="M449 223 Q449 215 457 215 L562 215 Q570 215 570 223 L570 241 Q570 249 562 249 L457 249 Q449 249 449 241 Z" clip-path="url(#clipPath2)"/>
    </g>
    <g text-rendering="geometricPrecision" stroke-miterlimit="1.45" shape-rendering="geometricPrecision" font-family="sans-serif" transform="matrix(1,0,0,1,-361,-91)" stroke-linecap="butt">
      <text x="472.4834" xml:space="preserve" y="236.7139" clip-path="url(#clipPath2)" stroke="none">NonRecurring</text>
    </g>
    <g fill="rgb(255,153,0)" text-rendering="geometricPrecision" shape-rendering="geometricPrecision" transform="matrix(1,0,0,1,-361,-91)" stroke="rgb(255,153,0)">
      <path d="M447 307 L572 307 L572 317 Q572 327 562 327 L457 327 Q447 327 447 317 Z" stroke="none" clip-path="url(#clipPath2)"/>
      <path fill="url(#linearGradient6)" d="M447 299 Q447 289 457 289 L562 289 Q572 289 572 299 L572 308 L447 308 Z" clip-path="url(#clipPath2)" stroke="none"/>
      <path fill="none" d="M449 299 Q449 291 457 291 L562 291 Q570 291 570 299 L570 317 Q570 325 562 325 L457 325 Q449 325 449 317 Z" stroke-width="2" clip-path="url(#clipPath2)" stroke="rgb(255,240,217)"/>
      <path fill="none" d="M449 299 Q449 291 457 291 L562 291 Q570 291 570 299 L570 317 Q570 325 562 325 L457 325 Q449 325 449 317 Z" clip-path="url(#clipPath2)"/>
    </g>
    <g text-rendering="geometricPrecision" stroke-miterlimit="1.45" shape-rendering="geometricPrecision" font-family="sans-serif" transform="matrix(1,0,0,1,-361,-91)" stroke-linecap="butt">
      <text x="461.1484" xml:space="preserve" y="312.7139" clip-path="url(#clipPath2)" stroke="none">Finalize Recurring</text>
    </g>
    <g text-rendering="geometricPrecision" stroke-miterlimit="1.45" shape-rendering="geometricPrecision" transform="matrix(1,0,0,1,-361,-91)" stroke-linecap="butt">
      <path fill="none" d="M438.5 159.9963 L438.5 344.0255" clip-path="url(#clipPath2)"/>
    </g>
    <g text-rendering="geometricPrecision" stroke-miterlimit="1.45" shape-rendering="geometricPrecision" transform="matrix(1,0,0,1,-361,-91)" stroke-linecap="butt">
      <path d="M438.5 352.0255 L443.5 340.0255 L438.5 343.0255 L433.5 340.0255 Z" stroke="none" clip-path="url(#clipPath2)"/>
      <path fill="none" d="M571.2189 247.9956 L571.2979 252.48 L572.4747 262.4209 L574.6058 272.0863 L577.6476 281.4189 L581.5565 290.3614 L586.2888 298.8569 L591.801 306.848 L598.0495 314.2776 L604.9906 321.0885 L612.5808 327.2235 L620.7764 332.6255 L629.5338 337.2372 L638.8094 341.0015 L648.5596 343.8612 L658.7408 345.7592 L669.0615 346.6218 L679.2209 346.443 L689.1618 345.2662 L698.8271 343.1351 L708.1597 340.0933 L717.1023 336.1844 L725.5977 331.4521 L733.5889 325.9398 L741.0184 319.6914 L747.8293 312.7502 L753.9644 305.1601 L759.3663 296.9645 L763.9781 288.2071 L767.7424 278.9314 L770.6021 269.1812 L772.5 259 L773.3627 248.6794 L773.1838 238.52 L772.0071 228.5791 L769.876 218.9137 L766.8342 209.5811 L762.9253 200.6385 L758.1929 192.1431 L752.6807 184.152 L746.4323 176.7224 L739.4911 169.9115 L731.9009 163.7765 L723.7053 158.3745 L714.9479 153.7628 L705.6723 149.9985 L695.9221 147.1388 L685.7408 145.2408 L675.4202 144.3782 L665.2609 144.557 L655.3199 145.7338 L645.6546 147.8649 L636.322 150.9067 L627.3795 154.8156 L618.884 159.5479 L610.8929 165.0601 L603.4633 171.3086 L596.6524 178.2497 L590.5173 185.8399 L585.1154 194.0355 L580.5037 202.7929 L576.7393 212.0686 L573.8796 221.8188 L573.47 224.0162" clip-path="url(#clipPath2)"/>
      <path d="M572.0039 231.8807 L579.1184 221.0002 L573.6533 223.0331 L569.2878 219.1676 Z" clip-path="url(#clipPath2)" stroke="none"/>
    </g>
  </g>
</svg>
