<svg version="1.1" xmlns="http://www.w3.org/2000/svg" xmlns:xlink="http://www.w3.org/1999/xlink" width="176.14285714285714" height="210"><style xmlns="http://www.w3.org/1999/xhtml"></style><defs/><g transform="translate(0,0)"><g><rect fill="#FFFFFF" stroke="none" x="0" y="0" width="176.14285714285714" height="210"/></g><g transform="translate(0,0) matrix(1,0,0,1,20,20)"><g><g transform="translate(0,0) scale(1.3,0.6)"><g><path fill="#ffe599" stroke="none" d="M 0 0 L 100 0 Q 100 0 100 0 L 100 100 Q 100 100 100 100 L 0 100 Q 0 100 0 100 L 0 0 Q 0 0 0 0 Z"/><g transform="scale(0.7692307692307692,1.6666666666666667)"><path fill="none" stroke="none" d="M 0 0 L 130 0 Q 130 0 130 0 L 130 60 Q 130 60 130 60 L 0 60 Q 0 60 0 60 L 0 0 Q 0 0 0 0 Z"/><path fill="none" stroke="#333333" d="M 0 0 M 0 0 L 130 0 Q 130 0 130 0 L 130 60 Q 130 60 130 60 L 0 60 Q 0 60 0 60 L 0 0 Q 0 0 0 0 Z" stroke-miterlimit="10" stroke-width="2"/></g></g></g></g></g><g transform="matrix(1,0,0,1,30,34)"><g><g><rect fill="rgb(0,0,0)" stroke="none" x="0" y="0" width="111" height="32" fill-opacity="0"/></g></g><g><g><rect fill="rgb(0,0,0)" stroke="none" x="0" y="0" width="111" height="32" fill-opacity="0"/></g></g><g><g><rect fill="rgb(0,0,0)" stroke="none" x="16.734375" y="0" width="78" height="32" fill-opacity="0"/></g><text fill="rgb(0, 0, 0)" stroke="none" font-family="Arial" font-size="14px" font-style="normal" font-weight="normal" text-decoration="" line-height="16.5px" x="31" y="14">Sensor</text><text fill="rgb(0, 0, 0)" stroke="none" font-family="Arial" font-size="14px" font-style="normal" font-weight="normal" text-decoration="" line-height="16.5px" x="75" y="14">-</text><text fill="rgb(0, 0, 0)" stroke="none" font-family="Arial" font-size="14px" font-style="normal" font-weight="normal" text-decoration="" line-height="16.5px" x="16.734375" y="30">RecordState</text></g></g><g transform="translate(0,0) matrix(1,0,0,1,20,130)"><g><g transform="translate(0,0) scale(1.3,0.6)"><g><path fill="#ffe599" stroke="none" d="M 0 0 L 100 0 Q 100 0 100 0 L 100 100 Q 100 100 100 100 L 0 100 Q 0 100 0 100 L 0 0 Q 0 0 0 0 Z"/><g transform="scale(0.7692307692307692,1.6666666666666667)"><path fill="none" stroke="none" d="M 0 0 L 130 0 Q 130 0 130 0 L 130 60 Q 130 60 130 60 L 0 60 Q 0 60 0 60 L 0 0 Q 0 0 0 0 Z"/><path fill="none" stroke="#333333" d="M 0 0 M 0 0 L 130 0 Q 130 0 130 0 L 130 60 Q 130 60 130 60 L 0 60 Q 0 60 0 60 L 0 0 Q 0 0 0 0 Z" stroke-miterlimit="10" stroke-width="2"/></g></g></g></g></g><g transform="matrix(1,0,0,1,30,146)"><g><g><rect fill="rgb(0,0,0)" stroke="none" x="0" y="0" width="111" height="28" fill-opacity="0"/></g></g><g><g><rect fill="rgb(0,0,0)" stroke="none" x="0" y="0" width="111" height="14" fill-opacity="0"/></g></g><g><g><rect fill="rgb(0,0,0)" stroke="none" x="1.28125" y="0" width="109" height="14" fill-opacity="0"/></g><text fill="rgb(0, 0, 0)" stroke="none" font-family="Arial" font-size="12px" font-style="normal" font-weight="normal" text-decoration="" line-height="14px" x="1" y="12">Sensor</text><text fill="rgb(0, 0, 0)" stroke="none" font-family="Arial" font-size="12px" font-style="normal" font-weight="normal" text-decoration="" line-height="14px" x="39" y="12">-</text><text fill="rgb(0, 0, 0)" stroke="none" font-family="Arial" font-size="12px" font-style="normal" font-weight="normal" text-decoration="" line-height="14px" x="43" y="12">RecordState</text></g><g><g><rect fill="rgb(0,0,0)" stroke="none" x="0" y="14" width="111" height="14" fill-opacity="0"/></g></g><g><g><rect fill="rgb(0,0,0)" stroke="none" x="12.625" y="14" width="86" height="14" fill-opacity="0"/></g><text fill="rgb(0, 0, 0)" stroke="none" font-family="Arial" font-size="12px" font-style="normal" font-weight="normal" text-decoration="" line-height="14px" x="13" y="26">-</text><text fill="rgb(0, 0, 0)" stroke="none" font-family="Arial" font-size="12px" font-style="normal" font-weight="normal" text-decoration="" line-height="14px" x="17" y="26">Implementation</text></g></g><g transform="matrix(1,0,0,1,81,76)"><g transform="translate(0,0)"><g transform="translate(-137,-283) translate(56,207) matrix(1,0,0,1,0,0)"><g><path fill="none" stroke="#000000" d="M 85 130 L 85 113.33333333333334 L 85 96.66666666666669 L 85 80" stroke-miterlimit="10"/></g></g></g></g></g></svg>