<svg version="1.1" xmlns="http://www.w3.org/2000/svg" xmlns:xlink="http://www.w3.org/1999/xlink" width="176.14285714285714" height="340"><style xmlns="http://www.w3.org/1999/xhtml"></style><defs/><g transform="translate(0,0)"><g><rect fill="#FFFFFF" stroke="none" x="0" y="0" width="176.14285714285714" height="340"/></g><g transform="translate(0,0) matrix(1,0,0,1,20,140)"><g><g transform="translate(0,0) scale(1.3,0.6)"><g><path fill="#ffe599" stroke="none" d="M 0 0 L 100 0 Q 100 0 100 0 L 100 100 Q 100 100 100 100 L 0 100 Q 0 100 0 100 L 0 0 Q 0 0 0 0 Z"/><g transform="scale(0.7692307692307692,1.6666666666666667)"><path fill="none" stroke="none" d="M 0 0 L 130 0 Q 130 0 130 0 L 130 60 Q 130 60 130 60 L 0 60 Q 0 60 0 60 L 0 0 Q 0 0 0 0 Z"/><path fill="none" stroke="#333333" d="M 0 0 M 0 0 L 130 0 Q 130 0 130 0 L 130 60 Q 130 60 130 60 L 0 60 Q 0 60 0 60 L 0 0 Q 0 0 0 0 Z" stroke-miterlimit="10" stroke-width="2"/></g></g></g></g></g><g transform="matrix(1,0,0,1,30,162)"><g><g><rect fill="rgb(0,0,0)" stroke="none" x="0" y="0" width="111" height="16" fill-opacity="0"/></g></g><g><g><rect fill="rgb(0,0,0)" stroke="none" x="0" y="0" width="111" height="16" fill-opacity="0"/></g></g><g><g><rect fill="rgb(0,0,0)" stroke="none" x="19.84375" y="0" width="71" height="16" fill-opacity="0"/></g><text fill="rgb(0, 0, 0)" stroke="none" font-family="Arial" font-size="14px" font-style="normal" font-weight="normal" text-decoration="" line-height="16.5px" x="19.84375" y="14">Stochastics</text></g></g><g transform="translate(0,0) matrix(1,0,0,1,20,260)"><g><g transform="translate(0,0) scale(1.3,0.6)"><g><path fill="#ffe599" stroke="none" d="M 0 0 L 100 0 Q 100 0 100 0 L 100 100 Q 100 100 100 100 L 0 100 Q 0 100 0 100 L 0 0 Q 0 0 0 0 Z"/><g transform="scale(0.7692307692307692,1.6666666666666667)"><path fill="none" stroke="none" d="M 0 0 L 130 0 Q 130 0 130 0 L 130 60 Q 130 60 130 60 L 0 60 Q 0 60 0 60 L 0 0 Q 0 0 0 0 Z"/><path fill="none" stroke="#333333" d="M 0 0 M 0 0 L 130 0 Q 130 0 130 0 L 130 60 Q 130 60 130 60 L 0 60 Q 0 60 0 60 L 0 0 Q 0 0 0 0 Z" stroke-miterlimit="10" stroke-width="2"/></g></g></g></g></g><g transform="matrix(1,0,0,1,30,276)"><g><g><rect fill="rgb(0,0,0)" stroke="none" x="0" y="0" width="111" height="28" fill-opacity="0"/></g></g><g><g><rect fill="rgb(0,0,0)" stroke="none" x="0" y="0" width="111" height="28" fill-opacity="0"/></g></g><g><g><rect fill="rgb(0,0,0)" stroke="none" x="14.625" y="0" width="82" height="28" fill-opacity="0"/></g><text fill="rgb(0, 0, 0)" stroke="none" font-family="Arial" font-size="12px" font-style="normal" font-weight="normal" text-decoration="" line-height="14px" x="23" y="12">Stochastics</text><text fill="rgb(0, 0, 0)" stroke="none" font-family="Arial" font-size="12px" font-style="normal" font-weight="normal" text-decoration="" line-height="14px" x="84" y="12">-</text><text fill="rgb(0, 0, 0)" stroke="none" font-family="Arial" font-size="12px" font-style="normal" font-weight="normal" text-decoration="" line-height="14px" x="14.625" y="26">Implementation</text></g></g><g transform="matrix(1,0,0,1,81,196)"><g transform="translate(0,0)"><g transform="translate(-137,-403) translate(56,207) matrix(1,0,0,1,0,0)"><g><path fill="none" stroke="#000000" d="M 85 260 L 85 240 L 85 220 L 85 200" stroke-miterlimit="10"/></g></g></g></g><g transform="translate(0,0) matrix(1,0,0,1,20,20)"><g><g transform="translate(0,0) scale(1.3,0.6)"><g><path fill="#9fc5e8" stroke="none" d="M 0 0 L 100 0 Q 100 0 100 0 L 100 100 Q 100 100 100 100 L 0 100 Q 0 100 0 100 L 0 0 Q 0 0 0 0 Z"/><g transform="scale(0.7692307692307692,1.6666666666666667)"><path fill="none" stroke="none" d="M 0 0 L 130 0 Q 130 0 130 0 L 130 60 Q 130 60 130 60 L 0 60 Q 0 60 0 60 L 0 0 Q 0 0 0 0 Z"/><path fill="none" stroke="#333333" d="M 0 0 M 0 0 L 130 0 Q 130 0 130 0 L 130 60 Q 130 60 130 60 L 0 60 Q 0 60 0 60 L 0 0 Q 0 0 0 0 Z" stroke-miterlimit="10" stroke-width="2"/></g></g></g></g></g><g transform="matrix(1,0,0,1,30,34)"><g><g><rect fill="rgb(0,0,0)" stroke="none" x="0" y="0" width="111" height="32" fill-opacity="0"/></g></g><g><g><rect fill="rgb(0,0,0)" stroke="none" x="0" y="0" width="111" height="32" fill-opacity="0"/></g></g><g><g><rect fill="rgb(0,0,0)" stroke="none" x="17.515625" y="0" width="76" height="32" fill-opacity="0"/></g><text fill="rgb(0, 0, 0)" stroke="none" font-family="Arial" font-size="14px" font-style="normal" font-weight="normal" text-decoration="" line-height="16.5px" x="18" y="14">Stochastics</text><text fill="rgb(0, 0, 0)" stroke="none" font-family="Arial" font-size="14px" font-style="normal" font-weight="normal" text-decoration="" line-height="16.5px" x="89" y="14">-</text><text fill="rgb(0, 0, 0)" stroke="none" font-family="Arial" font-size="14px" font-style="normal" font-weight="normal" text-decoration="" line-height="16.5px" x="28.40625" y="30">Interface</text></g></g><g transform="matrix(1,0,0,1,81,76)"><g transform="translate(0,0)"><g transform="translate(-147,-413) translate(66,337) matrix(1,0,0,1,0,0)"><g><path fill="none" stroke="#000000" d="M 85 140 L 85 120 L 85 100 L 85 80" stroke-miterlimit="10"/></g></g></g></g></g></svg>