<?xml version="1.0" encoding="UTF-8" standalone="no"?>
<!DOCTYPE svg PUBLIC "-//W3C//DTD SVG 1.1//EN"
 "http://www.w3.org/Graphics/SVG/1.1/DTD/svg11.dtd">
<!-- Generated by graphviz version 2.38.0 (20140413.2041)
 -->
<!-- Title: WindowPlugin Pages: 1 -->
<svg width="200pt" height="590pt"
 viewBox="0.00 0.00 200.00 590.00" xmlns="http://www.w3.org/2000/svg" xmlns:xlink="http://www.w3.org/1999/xlink">
<g id="graph0" class="graph" transform="scale(1 1) rotate(0) translate(4 586)">
<title>WindowPlugin</title>
<!-- Node0 -->
<g id="node1" class="node"><title>Node0</title>
<polygon fill="#bfbfbf" stroke="black" points="44.5,-397.5 44.5,-454.5 147.5,-454.5 147.5,-397.5 44.5,-397.5"/>
<text text-anchor="middle" x="96" y="-442.5" font-family="Helvetica,sans-Serif" font-size="10.00">WindowPlugin</text>
<polyline fill="none" stroke="black" points="44.5,-435.5 147.5,-435.5 "/>
<text text-anchor="middle" x="96" y="-423.5" font-family="Helvetica,sans-Serif" font-size="10.00"> </text>
<polyline fill="none" stroke="black" points="44.5,-416.5 147.5,-416.5 "/>
<text text-anchor="start" x="52.5" y="-404.5" font-family="Helvetica,sans-Serif" font-size="10.00">+ WindowInterface()</text>
</g>
<!-- Node2 -->
<g id="node3" class="node"><title>Node2</title>
<g id="a_node3"><a xlink:href="class_project_plugin.html" target="_top" xlink:title="This class template registers a service or deregisters it from a map of services and enables access t...">
<polygon fill="none" stroke="black" points="7.5,-303.5 7.5,-360.5 106.5,-360.5 106.5,-303.5 7.5,-303.5"/>
<text text-anchor="middle" x="57" y="-348.5" font-family="Helvetica,sans-Serif" font-size="10.00">ProjectPlugin</text>
<polyline fill="none" stroke="black" points="7.5,-341.5 106.5,-341.5 "/>
<text text-anchor="middle" x="57" y="-329.5" font-family="Helvetica,sans-Serif" font-size="10.00"> </text>
<polyline fill="none" stroke="black" points="7.5,-322.5 106.5,-322.5 "/>
<text text-anchor="start" x="15.5" y="-310.5" font-family="Helvetica,sans-Serif" font-size="10.00">+ ProjectInterface()</text>
</a>
</g>
</g>
<!-- Node0&#45;&gt;Node2 -->
<g id="edge2" class="edge"><title>Node0&#45;&gt;Node2</title>
<path fill="none" stroke="midnightblue" d="M80.3491,-388.08C76.4589,-378.903 72.3559,-369.224 68.693,-360.584"/>
<polygon fill="none" stroke="midnightblue" points="77.1733,-389.556 84.2987,-397.397 83.6181,-386.824 77.1733,-389.556"/>
</g>
<!-- Node3 -->
<g id="node4" class="node"><title>Node3</title>
<g id="a_node4"><a xlink:href="class_system_plugin.html" target="_top" xlink:title="This class template registers a service or deregisters it from a map of services and enables access t...">
<polygon fill="none" stroke="black" points="0,-0.5 0,-266.5 192,-266.5 192,-0.5 0,-0.5"/>
<text text-anchor="middle" x="96" y="-254.5" font-family="Helvetica,sans-Serif" font-size="10.00">SystemPlugin</text>
<polyline fill="none" stroke="black" points="0,-247.5 192,-247.5 "/>
<text text-anchor="middle" x="96" y="-235.5" font-family="Helvetica,sans-Serif" font-size="10.00"> </text>
<polyline fill="none" stroke="black" points="0,-228.5 192,-228.5 "/>
<text text-anchor="start" x="8" y="-216.5" font-family="Helvetica,sans-Serif" font-size="10.00">+ SystemComponentInputItem</text>
<text text-anchor="start" x="8" y="-205.5" font-family="Helvetica,sans-Serif" font-size="10.00">Interface()</text>
<text text-anchor="start" x="8" y="-194.5" font-family="Helvetica,sans-Serif" font-size="10.00">+ SystemComponentInputMapInterface()</text>
<text text-anchor="start" x="8" y="-183.5" font-family="Helvetica,sans-Serif" font-size="10.00">+ SystemComponentItemInterface()</text>
<text text-anchor="start" x="8" y="-172.5" font-family="Helvetica,sans-Serif" font-size="10.00">+ SystemComponentManagerInterface()</text>
<text text-anchor="start" x="8" y="-161.5" font-family="Helvetica,sans-Serif" font-size="10.00">+ SystemComponentMapInterface()</text>
<text text-anchor="start" x="8" y="-150.5" font-family="Helvetica,sans-Serif" font-size="10.00">+ SystemComponentOutputItem</text>
<text text-anchor="start" x="8" y="-139.5" font-family="Helvetica,sans-Serif" font-size="10.00">Interface()</text>
<text text-anchor="start" x="8" y="-128.5" font-family="Helvetica,sans-Serif" font-size="10.00">+ SystemComponentOutputMap</text>
<text text-anchor="start" x="8" y="-117.5" font-family="Helvetica,sans-Serif" font-size="10.00">Interface()</text>
<text text-anchor="start" x="8" y="-106.5" font-family="Helvetica,sans-Serif" font-size="10.00">+ SystemComponentParameter</text>
<text text-anchor="start" x="8" y="-95.5" font-family="Helvetica,sans-Serif" font-size="10.00">ItemInterface()</text>
<text text-anchor="start" x="8" y="-84.5" font-family="Helvetica,sans-Serif" font-size="10.00">+ SystemComponentParameter</text>
<text text-anchor="start" x="8" y="-73.5" font-family="Helvetica,sans-Serif" font-size="10.00">MapInterface()</text>
<text text-anchor="start" x="8" y="-62.5" font-family="Helvetica,sans-Serif" font-size="10.00">+ SystemComponentScheduleInterface()</text>
<text text-anchor="start" x="8" y="-51.5" font-family="Helvetica,sans-Serif" font-size="10.00">+ SystemConnectionItemInterface()</text>
<text text-anchor="start" x="8" y="-40.5" font-family="Helvetica,sans-Serif" font-size="10.00">+ SystemConnectionMapInterface()</text>
<text text-anchor="start" x="8" y="-29.5" font-family="Helvetica,sans-Serif" font-size="10.00">+ SystemInterface()</text>
<text text-anchor="start" x="8" y="-18.5" font-family="Helvetica,sans-Serif" font-size="10.00">+ SystemItemInterface()</text>
<text text-anchor="start" x="8" y="-7.5" font-family="Helvetica,sans-Serif" font-size="10.00">+ SystemMapInterface()</text>
</a>
</g>
</g>
<!-- Node0&#45;&gt;Node3 -->
<g id="edge4" class="edge"><title>Node0&#45;&gt;Node3</title>
<path fill="none" stroke="midnightblue" d="M109.76,-387.608C112.349,-378.985 114.662,-369.767 116,-361 120.645,-330.561 120.603,-297.644 118.299,-266.585"/>
<polygon fill="none" stroke="midnightblue" points="106.342,-386.804 106.635,-397.395 113.011,-388.933 106.342,-386.804"/>
</g>
<!-- Node1 -->
<g id="node2" class="node"><title>Node1</title>
<g id="a_node2"><a xlink:href="classopen_p_a_s_s_g_u_i_application.html" target="_top" xlink:title="This class template registers a service or deregisters it from a map of services and enables access t...">
<polygon fill="none" stroke="black" points="27.5,-491.5 27.5,-581.5 164.5,-581.5 164.5,-491.5 27.5,-491.5"/>
<text text-anchor="middle" x="96" y="-569.5" font-family="Helvetica,sans-Serif" font-size="10.00">openPASSGUIApplication</text>
<polyline fill="none" stroke="black" points="27.5,-562.5 164.5,-562.5 "/>
<text text-anchor="middle" x="96" y="-550.5" font-family="Helvetica,sans-Serif" font-size="10.00"> </text>
<polyline fill="none" stroke="black" points="27.5,-543.5 164.5,-543.5 "/>
<text text-anchor="start" x="35.5" y="-531.5" font-family="Helvetica,sans-Serif" font-size="10.00">+ PluginInterface()</text>
<text text-anchor="start" x="35.5" y="-520.5" font-family="Helvetica,sans-Serif" font-size="10.00">+ PluginManagerInterface()</text>
<text text-anchor="start" x="35.5" y="-509.5" font-family="Helvetica,sans-Serif" font-size="10.00">+ ServiceInterface()</text>
<text text-anchor="start" x="35.5" y="-498.5" font-family="Helvetica,sans-Serif" font-size="10.00">+ ServiceManagerInterface()</text>
</a>
</g>
</g>
<!-- Node1&#45;&gt;Node0 -->
<g id="edge1" class="edge"><title>Node1&#45;&gt;Node0</title>
<path fill="none" stroke="midnightblue" d="M96,-481.353C96,-472.074 96,-462.791 96,-454.59"/>
<polygon fill="none" stroke="midnightblue" points="92.5001,-481.369 96,-491.369 99.5001,-481.369 92.5001,-481.369"/>
</g>
<!-- Node2&#45;&gt;Node3 -->
<g id="edge3" class="edge"><title>Node2&#45;&gt;Node3</title>
<path fill="none" stroke="midnightblue" d="M64.5014,-293.205C66.1026,-285.137 67.8803,-276.18 69.7528,-266.746"/>
<polygon fill="none" stroke="midnightblue" points="61.0188,-292.773 62.505,-303.263 67.8849,-294.136 61.0188,-292.773"/>
</g>
</g>
</svg>
