<?xml version="1.0" encoding="UTF-8" standalone="no"?>
<!DOCTYPE svg PUBLIC "-//W3C//DTD SVG 1.1//EN"
 "http://www.w3.org/Graphics/SVG/1.1/DTD/svg11.dtd">
<!-- Generated by graphviz version 2.38.0 (20140413.2041)
 -->
<!-- Title: SystemPlugin Pages: 1 -->
<svg width="393pt" height="689pt"
 viewBox="0.00 0.00 393.00 689.00" xmlns="http://www.w3.org/2000/svg" xmlns:xlink="http://www.w3.org/1999/xlink">
<g id="graph0" class="graph" transform="scale(1 1) rotate(0) translate(4 685)">
<title>SystemPlugin</title>
<!-- Node0 -->
<g id="node1" class="node"><title>Node0</title>
<polygon fill="#bfbfbf" stroke="black" points="0,-0.5 0,-266.5 192,-266.5 192,-0.5 0,-0.5"/>
<text text-anchor="middle" x="96" y="-254.5" font-family="Helvetica,sans-Serif" font-size="10.00">SystemPlugin</text>
<polyline fill="none" stroke="black" points="0,-247.5 192,-247.5 "/>
<text text-anchor="middle" x="96" y="-235.5" font-family="Helvetica,sans-Serif" font-size="10.00"> </text>
<polyline fill="none" stroke="black" points="0,-228.5 192,-228.5 "/>
<text text-anchor="start" x="8" y="-216.5" font-family="Helvetica,sans-Serif" font-size="10.00">+ SystemComponentInputItem</text>
<text text-anchor="start" x="8" y="-205.5" font-family="Helvetica,sans-Serif" font-size="10.00">Interface()</text>
<text text-anchor="start" x="8" y="-194.5" font-family="Helvetica,sans-Serif" font-size="10.00">+ SystemComponentInputMapInterface()</text>
<text text-anchor="start" x="8" y="-183.5" font-family="Helvetica,sans-Serif" font-size="10.00">+ SystemComponentItemInterface()</text>
<text text-anchor="start" x="8" y="-172.5" font-family="Helvetica,sans-Serif" font-size="10.00">+ SystemComponentManagerInterface()</text>
<text text-anchor="start" x="8" y="-161.5" font-family="Helvetica,sans-Serif" font-size="10.00">+ SystemComponentMapInterface()</text>
<text text-anchor="start" x="8" y="-150.5" font-family="Helvetica,sans-Serif" font-size="10.00">+ SystemComponentOutputItem</text>
<text text-anchor="start" x="8" y="-139.5" font-family="Helvetica,sans-Serif" font-size="10.00">Interface()</text>
<text text-anchor="start" x="8" y="-128.5" font-family="Helvetica,sans-Serif" font-size="10.00">+ SystemComponentOutputMap</text>
<text text-anchor="start" x="8" y="-117.5" font-family="Helvetica,sans-Serif" font-size="10.00">Interface()</text>
<text text-anchor="start" x="8" y="-106.5" font-family="Helvetica,sans-Serif" font-size="10.00">+ SystemComponentParameter</text>
<text text-anchor="start" x="8" y="-95.5" font-family="Helvetica,sans-Serif" font-size="10.00">ItemInterface()</text>
<text text-anchor="start" x="8" y="-84.5" font-family="Helvetica,sans-Serif" font-size="10.00">+ SystemComponentParameter</text>
<text text-anchor="start" x="8" y="-73.5" font-family="Helvetica,sans-Serif" font-size="10.00">MapInterface()</text>
<text text-anchor="start" x="8" y="-62.5" font-family="Helvetica,sans-Serif" font-size="10.00">+ SystemComponentScheduleInterface()</text>
<text text-anchor="start" x="8" y="-51.5" font-family="Helvetica,sans-Serif" font-size="10.00">+ SystemConnectionItemInterface()</text>
<text text-anchor="start" x="8" y="-40.5" font-family="Helvetica,sans-Serif" font-size="10.00">+ SystemConnectionMapInterface()</text>
<text text-anchor="start" x="8" y="-29.5" font-family="Helvetica,sans-Serif" font-size="10.00">+ SystemInterface()</text>
<text text-anchor="start" x="8" y="-18.5" font-family="Helvetica,sans-Serif" font-size="10.00">+ SystemItemInterface()</text>
<text text-anchor="start" x="8" y="-7.5" font-family="Helvetica,sans-Serif" font-size="10.00">+ SystemMapInterface()</text>
</g>
<!-- Node1 -->
<g id="node2" class="node"><title>Node1</title>
<g id="a_node2"><a xlink:href="classopen_p_a_s_s_g_u_i_application.html" target="_top" xlink:title="This class template registers a service or deregisters it from a map of services and enables access t...">
<polygon fill="none" stroke="black" points="70.5,-590.5 70.5,-680.5 207.5,-680.5 207.5,-590.5 70.5,-590.5"/>
<text text-anchor="middle" x="139" y="-668.5" font-family="Helvetica,sans-Serif" font-size="10.00">openPASSGUIApplication</text>
<polyline fill="none" stroke="black" points="70.5,-661.5 207.5,-661.5 "/>
<text text-anchor="middle" x="139" y="-649.5" font-family="Helvetica,sans-Serif" font-size="10.00"> </text>
<polyline fill="none" stroke="black" points="70.5,-642.5 207.5,-642.5 "/>
<text text-anchor="start" x="78.5" y="-630.5" font-family="Helvetica,sans-Serif" font-size="10.00">+ PluginInterface()</text>
<text text-anchor="start" x="78.5" y="-619.5" font-family="Helvetica,sans-Serif" font-size="10.00">+ PluginManagerInterface()</text>
<text text-anchor="start" x="78.5" y="-608.5" font-family="Helvetica,sans-Serif" font-size="10.00">+ ServiceInterface()</text>
<text text-anchor="start" x="78.5" y="-597.5" font-family="Helvetica,sans-Serif" font-size="10.00">+ ServiceManagerInterface()</text>
</a>
</g>
</g>
<!-- Node1&#45;&gt;Node0 -->
<g id="edge1" class="edge"><title>Node1&#45;&gt;Node0</title>
<path fill="none" stroke="midnightblue" d="M62.8809,-587.057C52.8235,-577.4 43.9515,-566.354 38,-554 -5.15729,-464.414 13.4763,-352.396 40.6561,-266.655"/>
<polygon fill="none" stroke="midnightblue" points="60.6231,-589.734 70.389,-593.843 65.3167,-584.541 60.6231,-589.734"/>
</g>
<!-- Node2 -->
<g id="node3" class="node"><title>Node2</title>
<g id="a_node3"><a xlink:href="class_window_plugin.html" target="_top" xlink:title="This class template registers a service or deregisters it from a map of services and enables access t...">
<polygon fill="none" stroke="black" points="47.5,-496.5 47.5,-553.5 150.5,-553.5 150.5,-496.5 47.5,-496.5"/>
<text text-anchor="middle" x="99" y="-541.5" font-family="Helvetica,sans-Serif" font-size="10.00">WindowPlugin</text>
<polyline fill="none" stroke="black" points="47.5,-534.5 150.5,-534.5 "/>
<text text-anchor="middle" x="99" y="-522.5" font-family="Helvetica,sans-Serif" font-size="10.00"> </text>
<polyline fill="none" stroke="black" points="47.5,-515.5 150.5,-515.5 "/>
<text text-anchor="start" x="55.5" y="-503.5" font-family="Helvetica,sans-Serif" font-size="10.00">+ WindowInterface()</text>
</a>
</g>
</g>
<!-- Node1&#45;&gt;Node2 -->
<g id="edge3" class="edge"><title>Node1&#45;&gt;Node2</title>
<path fill="none" stroke="midnightblue" d="M119.256,-580.945C115.763,-571.469 112.259,-561.965 109.171,-553.59"/>
<polygon fill="none" stroke="midnightblue" points="115.987,-582.197 122.73,-590.369 122.555,-579.776 115.987,-582.197"/>
</g>
<!-- Node3 -->
<g id="node4" class="node"><title>Node3</title>
<g id="a_node4"><a xlink:href="class_component_plugin.html" target="_top" xlink:title="This class template registers a service or deregisters it from a map of services and enables access t...">
<polygon fill="none" stroke="black" points="203,-303.5 203,-459.5 385,-459.5 385,-303.5 203,-303.5"/>
<text text-anchor="middle" x="294" y="-447.5" font-family="Helvetica,sans-Serif" font-size="10.00">ComponentPlugin</text>
<polyline fill="none" stroke="black" points="203,-440.5 385,-440.5 "/>
<text text-anchor="middle" x="294" y="-428.5" font-family="Helvetica,sans-Serif" font-size="10.00"> </text>
<polyline fill="none" stroke="black" points="203,-421.5 385,-421.5 "/>
<text text-anchor="start" x="211" y="-409.5" font-family="Helvetica,sans-Serif" font-size="10.00">+ ComponentInputItemInterface()</text>
<text text-anchor="start" x="211" y="-398.5" font-family="Helvetica,sans-Serif" font-size="10.00">+ ComponentInputMapInterface()</text>
<text text-anchor="start" x="211" y="-387.5" font-family="Helvetica,sans-Serif" font-size="10.00">+ ComponentInterface()</text>
<text text-anchor="start" x="211" y="-376.5" font-family="Helvetica,sans-Serif" font-size="10.00">+ ComponentItemInterface()</text>
<text text-anchor="start" x="211" y="-365.5" font-family="Helvetica,sans-Serif" font-size="10.00">+ ComponentMapInterface()</text>
<text text-anchor="start" x="211" y="-354.5" font-family="Helvetica,sans-Serif" font-size="10.00">+ ComponentOutputItemInterface()</text>
<text text-anchor="start" x="211" y="-343.5" font-family="Helvetica,sans-Serif" font-size="10.00">+ ComponentOutputMapInterface()</text>
<text text-anchor="start" x="211" y="-332.5" font-family="Helvetica,sans-Serif" font-size="10.00">+ ComponentParameterItemInterface()</text>
<text text-anchor="start" x="211" y="-321.5" font-family="Helvetica,sans-Serif" font-size="10.00">+ ComponentParameterMapInterface()</text>
<text text-anchor="start" x="211" y="-310.5" font-family="Helvetica,sans-Serif" font-size="10.00">+ ComponentScheduleInterface()</text>
</a>
</g>
</g>
<!-- Node1&#45;&gt;Node3 -->
<g id="edge5" class="edge"><title>Node1&#45;&gt;Node3</title>
<path fill="none" stroke="midnightblue" d="M171.546,-581.587C193.306,-546.208 222.294,-499.08 246.603,-459.558"/>
<polygon fill="none" stroke="midnightblue" points="168.434,-579.965 166.176,-590.317 174.397,-583.633 168.434,-579.965"/>
</g>
<!-- Node4 -->
<g id="node5" class="node"><title>Node4</title>
<g id="a_node5"><a xlink:href="class_project_plugin.html" target="_top" xlink:title="This class template registers a service or deregisters it from a map of services and enables access t...">
<polygon fill="none" stroke="black" points="85.5,-353 85.5,-410 184.5,-410 184.5,-353 85.5,-353"/>
<text text-anchor="middle" x="135" y="-398" font-family="Helvetica,sans-Serif" font-size="10.00">ProjectPlugin</text>
<polyline fill="none" stroke="black" points="85.5,-391 184.5,-391 "/>
<text text-anchor="middle" x="135" y="-379" font-family="Helvetica,sans-Serif" font-size="10.00"> </text>
<polyline fill="none" stroke="black" points="85.5,-372 184.5,-372 "/>
<text text-anchor="start" x="93.5" y="-360" font-family="Helvetica,sans-Serif" font-size="10.00">+ ProjectInterface()</text>
</a>
</g>
</g>
<!-- Node1&#45;&gt;Node4 -->
<g id="edge7" class="edge"><title>Node1&#45;&gt;Node4</title>
<path fill="none" stroke="midnightblue" d="M154.344,-580.408C156.278,-571.646 157.945,-562.62 159,-554 165.226,-503.12 152.513,-443.94 143.326,-410.085"/>
<polygon fill="none" stroke="midnightblue" points="150.934,-579.619 152.067,-590.153 157.751,-581.212 150.934,-579.619"/>
</g>
<!-- Node2&#45;&gt;Node0 -->
<g id="edge2" class="edge"><title>Node2&#45;&gt;Node0</title>
<path fill="none" stroke="midnightblue" d="M83.196,-486.782C80.2132,-478.142 77.5461,-468.874 76,-460 65.0185,-396.972 67.6284,-326.166 73.9707,-266.728"/>
<polygon fill="none" stroke="midnightblue" points="79.9261,-488.031 86.6548,-496.215 86.4983,-485.622 79.9261,-488.031"/>
</g>
<!-- Node2&#45;&gt;Node4 -->
<g id="edge8" class="edge"><title>Node2&#45;&gt;Node4</title>
<path fill="none" stroke="midnightblue" d="M108.532,-486.535C114.645,-462.508 122.446,-431.846 127.991,-410.049"/>
<polygon fill="none" stroke="midnightblue" points="105.1,-485.827 106.027,-496.381 111.884,-487.553 105.1,-485.827"/>
</g>
<!-- Node3&#45;&gt;Node0 -->
<g id="edge4" class="edge"><title>Node3&#45;&gt;Node0</title>
<path fill="none" stroke="midnightblue" d="M225.326,-295.178C214.661,-281.928 203.477,-268.031 192.337,-254.191"/>
<polygon fill="none" stroke="midnightblue" points="222.898,-297.743 231.895,-303.339 228.351,-293.354 222.898,-297.743"/>
</g>
<!-- Node4&#45;&gt;Node0 -->
<g id="edge6" class="edge"><title>Node4&#45;&gt;Node0</title>
<path fill="none" stroke="midnightblue" d="M129.015,-342.751C125.703,-321.86 121.368,-294.512 116.933,-266.537"/>
<polygon fill="none" stroke="midnightblue" points="125.579,-343.43 130.602,-352.759 132.493,-342.334 125.579,-343.43"/>
</g>
</g>
</svg>
