<?xml version="1.0" encoding="UTF-8" standalone="no"?>
<!DOCTYPE svg PUBLIC "-//W3C//DTD SVG 1.1//EN"
 "http://www.w3.org/Graphics/SVG/1.1/DTD/svg11.dtd">
<!-- Generated by graphviz version 2.38.0 (20140413.2041)
 -->
<!-- Title: Window Plugin Pages: 1 -->
<svg width="198pt" height="246pt"
 viewBox="0.00 0.00 198.00 246.00" xmlns="http://www.w3.org/2000/svg" xmlns:xlink="http://www.w3.org/1999/xlink">
<g id="graph0" class="graph" transform="scale(1 1) rotate(0) translate(4 242)">
<title>Window Plugin</title>
<!-- Node0 -->
<g id="node1" class="node"><title>Node0</title>
<polygon fill="#bfbfbf" stroke="black" points="18.5,-33.5 18.5,-90.5 145.5,-90.5 145.5,-33.5 18.5,-33.5"/>
<text text-anchor="middle" x="82" y="-78.5" font-family="Helvetica,sans-Serif" font-size="10.00">Window Plugin</text>
<polyline fill="none" stroke="black" points="18.5,-71.5 145.5,-71.5 "/>
<text text-anchor="middle" x="82" y="-59.5" font-family="Helvetica,sans-Serif" font-size="10.00"> </text>
<polyline fill="none" stroke="black" points="18.5,-52.5 145.5,-52.5 "/>
<text text-anchor="start" x="26.5" y="-40.5" font-family="Helvetica,sans-Serif" font-size="10.00">+ Window Interface</text>
</g>
<!-- Node1 -->
<g id="node2" class="node"><title>Node1</title>
<g id="a_node2"><a xlink:href="class_service_interface.html" target="_top" xlink:title="{ServiceInterface\&lt; Component\lInterface, ComponentInterfaceID \&gt;\n||+ ServiceInterface()\l+ ~ServiceInterface()\l+ instance()\l}">
<polygon fill="none" stroke="black" points="0,-128.5 0,-218.5 164,-218.5 164,-128.5 0,-128.5"/>
<text text-anchor="middle" x="82" y="-206.5" font-family="Helvetica,sans-Serif" font-size="10.00">openPASS GUI Application</text>
<polyline fill="none" stroke="black" points="0,-199.5 164,-199.5 "/>
<text text-anchor="middle" x="82" y="-187.5" font-family="Helvetica,sans-Serif" font-size="10.00"> </text>
<polyline fill="none" stroke="black" points="0,-180.5 164,-180.5 "/>
<text text-anchor="start" x="8" y="-168.5" font-family="Helvetica,sans-Serif" font-size="10.00">+ Plugin Interface</text>
<text text-anchor="start" x="8" y="-157.5" font-family="Helvetica,sans-Serif" font-size="10.00">+ Plugin Manager Interface</text>
<text text-anchor="start" x="8" y="-146.5" font-family="Helvetica,sans-Serif" font-size="10.00">+ Service Interface</text>
<text text-anchor="start" x="8" y="-135.5" font-family="Helvetica,sans-Serif" font-size="10.00">+ Service Manager Interface</text>
</a>
</g>
</g>
<!-- Node1&#45;&gt;Node0 -->
<g id="edge1" class="edge"><title>Node1&#45;&gt;Node0</title>
<path fill="none" stroke="midnightblue" d="M82,-118.226C82,-109.056 82,-99.6331 82,-90.7568"/>
<polygon fill="none" stroke="midnightblue" points="78.5001,-118.431 82,-128.431 85.5001,-118.431 78.5001,-118.431"/>
</g>
</g>
</svg>
